<?xml version="1.0" encoding="utf-8"?>
<!-- Generator: Adobe Illustrator 17.1.0, SVG Export Plug-In . SVG Version: 6.00 Build 0)  -->
<!DOCTYPE svg PUBLIC "-//W3C//DTD SVG 1.0//EN" "http://www.w3.org/TR/2001/REC-SVG-20010904/DTD/svg10.dtd">
<svg version="1.0" id="Layer_1" xmlns="http://www.w3.org/2000/svg" xmlns:xlink="http://www.w3.org/1999/xlink" x="0px" y="0px"
	 viewBox="0 0 232.945 239.333" enable-background="new 0 0 232.945 239.333" xml:space="preserve">
<g>
	<path fill="#196fa6" d="M194.849,178.76l-3.497-22.15l-10.699-96.945l4.093-15.595l16.889-8.866c2.934-1.541,4.063-5.167,2.523-8.102
		c-1.541-2.934-5.167-4.064-8.102-2.523l-19.231,10.096c-0.034,0.018-0.065,0.04-0.099,0.058c-0.103,0.056-0.203,0.116-0.302,0.178
		c-0.073,0.046-0.146,0.092-0.216,0.141c-0.087,0.06-0.171,0.123-0.255,0.188c-0.074,0.057-0.148,0.115-0.22,0.175
		c-0.075,0.064-0.148,0.131-0.22,0.199c-0.071,0.066-0.141,0.132-0.209,0.202c-0.069,0.071-0.133,0.145-0.199,0.219
		c-0.062,0.071-0.125,0.142-0.184,0.216c-0.064,0.08-0.124,0.164-0.184,0.247c-0.053,0.074-0.106,0.147-0.155,0.223
		c-0.057,0.087-0.109,0.178-0.162,0.269c-0.045,0.079-0.091,0.157-0.132,0.237c-0.046,0.09-0.089,0.182-0.131,0.275
		c-0.04,0.089-0.08,0.178-0.116,0.268c-0.034,0.087-0.066,0.175-0.096,0.265c-0.035,0.103-0.068,0.206-0.098,0.31
		c-0.012,0.041-0.027,0.079-0.038,0.12l-4.054,15.444L36.73,75.081c-0.079,0.013-0.154,0.034-0.232,0.049
		c-0.112,0.022-0.224,0.042-0.333,0.07c-0.088,0.023-0.173,0.052-0.26,0.079c-0.105,0.032-0.212,0.062-0.314,0.1
		c-0.088,0.032-0.172,0.071-0.257,0.108c-0.096,0.041-0.193,0.079-0.287,0.124c-0.088,0.043-0.171,0.091-0.256,0.138
		c-0.086,0.047-0.174,0.092-0.257,0.143c-0.085,0.052-0.165,0.11-0.247,0.166c-0.078,0.054-0.158,0.105-0.234,0.162
		c-0.08,0.061-0.155,0.127-0.232,0.191c-0.071,0.059-0.143,0.117-0.211,0.179c-0.074,0.069-0.143,0.142-0.214,0.215
		c-0.064,0.065-0.13,0.128-0.19,0.196c-0.067,0.075-0.128,0.154-0.192,0.233c-0.058,0.071-0.117,0.141-0.172,0.214
		c-0.059,0.08-0.112,0.165-0.167,0.248c-0.051,0.077-0.104,0.153-0.152,0.232c-0.05,0.084-0.094,0.172-0.141,0.259
		c-0.044,0.083-0.091,0.165-0.132,0.25c-0.042,0.088-0.077,0.178-0.114,0.268c-0.037,0.089-0.076,0.176-0.109,0.266
		c-0.033,0.091-0.059,0.184-0.087,0.277c-0.029,0.093-0.06,0.185-0.084,0.279c-0.024,0.095-0.041,0.192-0.06,0.288
		c-0.019,0.096-0.041,0.19-0.056,0.287c-0.015,0.098-0.022,0.197-0.032,0.296c-0.01,0.098-0.023,0.196-0.028,0.295
		c-0.005,0.098-0.002,0.197-0.002,0.296c0,0.102-0.003,0.204,0.002,0.307c0.005,0.095,0.018,0.191,0.027,0.287
		c0.009,0.094,0.013,0.188,0.026,0.282l8.654,59.616c0.003,0.019,0.01,0.035,0.013,0.054c0.05,0.326,0.128,0.644,0.229,0.952
		c0.016,0.048,0.032,0.095,0.048,0.142c0.104,0.293,0.23,0.576,0.377,0.846c0.028,0.052,0.058,0.101,0.087,0.152
		c0.153,0.263,0.322,0.516,0.513,0.752c0.029,0.036,0.06,0.069,0.09,0.104c0.206,0.244,0.426,0.475,0.668,0.684
		c0.004,0.003,0.008,0.006,0.013,0.01c0.249,0.214,0.519,0.405,0.803,0.576c0.02,0.012,0.038,0.025,0.058,0.037
		c0.269,0.158,0.554,0.292,0.849,0.408c0.049,0.019,0.096,0.039,0.145,0.057c0.28,0.102,0.571,0.182,0.871,0.242
		c0.067,0.013,0.135,0.024,0.203,0.035c0.084,0.014,0.167,0.033,0.252,0.043l134.576,16.245l2.525,15.991H74.346
		c-1.5,0-2.869,0.555-3.921,1.465c-7.438,0.276-13.387,6.377-13.387,13.882c0,7.681,6.227,13.908,13.908,13.908
		s13.908-6.227,13.908-13.908c0-1.156-0.157-2.273-0.422-3.347h94.382c-0.065,0.545-0.108,1.096-0.108,1.658
		c0,7.681,6.227,13.908,13.908,13.908c7.681,0,13.908-6.227,13.908-13.908C206.524,185.553,201.466,179.831,194.849,178.76z
		 M51.605,135.216l-7.144-49.215l124.833-19.868l9.316,84.414L51.605,135.216z"/>
</g>
<g>
	<g>
		<path fill="#196fa6" d="M69.362,133.021c-2.666,0-5.007-1.942-5.428-4.659l-5.318-34.314c-0.465-3.001,1.591-5.812,4.593-6.277
			c3.003-0.466,5.812,1.591,6.277,4.593l5.318,34.314c0.465,3.001-1.591,5.812-4.593,6.277
			C69.926,132.999,69.642,133.021,69.362,133.021z"/>
	</g>
	<g>
		<path fill="#196fa6" d="M88.457,135.311c-2.666,0-5.007-1.942-5.428-4.659l-6.149-39.682c-0.465-3.002,1.591-5.812,4.593-6.277
			c3.001-0.468,5.812,1.591,6.277,4.593l6.149,39.682c0.465,3.002-1.591,5.812-4.593,6.277
			C89.021,135.29,88.736,135.311,88.457,135.311z"/>
	</g>
	<g>
		<path fill="#196fa6" d="M107.551,137.601c-2.666,0-5.007-1.942-5.428-4.659l-6.981-45.049c-0.465-3.002,1.591-5.812,4.593-6.277
			c3-0.47,5.812,1.591,6.277,4.593l6.981,45.049c0.465,3.002-1.591,5.812-4.593,6.277
			C108.115,137.58,107.831,137.601,107.551,137.601z"/>
	</g>
	<g>
		<path fill="#196fa6" d="M126.646,139.892c-2.666,0-5.007-1.942-5.428-4.659l-7.813-50.417c-0.465-3.002,1.591-5.812,4.593-6.277
			c3.003-0.467,5.812,1.591,6.277,4.593l7.813,50.417c0.465,3.002-1.591,5.812-4.593,6.277
			C127.209,139.87,126.925,139.892,126.646,139.892z"/>
	</g>
	<g>
		<path fill="#196fa6" d="M145.74,142.182c-2.666,0-5.007-1.942-5.428-4.659l-8.645-55.785c-0.465-3.002,1.591-5.812,4.593-6.277
			c3.001-0.469,5.812,1.591,6.277,4.593l8.645,55.785c0.465,3.002-1.591,5.812-4.593,6.277
			C146.304,142.16,146.02,142.182,145.74,142.182z"/>
	</g>
	<g>
		<path fill="#196fa6" d="M164.835,144.472c-2.666,0-5.007-1.942-5.428-4.659l-9.477-61.152c-0.465-3.002,1.591-5.812,4.593-6.277
			c2.999-0.466,5.812,1.591,6.277,4.593l9.477,61.152c0.465,3.002-1.591,5.812-4.593,6.277
			C165.399,144.451,165.115,144.472,164.835,144.472z"/>
	</g>
</g>
</svg>
